<svg width="512" height="512" viewBox="0 0 512 512" fill="none" xmlns="http://www.w3.org/2000/svg">
<path fill-rule="evenodd" clip-rule="evenodd" d="M123.2 264.896C101.998 264.896 81.2719 271.183 63.6429 282.962C46.014 294.742 32.2739 311.484 24.1602 331.072C16.0464 350.661 13.9235 372.215 18.0599 393.01C22.1962 413.804 32.406 432.906 47.3982 447.898C62.3904 462.89 81.4916 473.1 102.286 477.236C123.081 481.373 144.635 479.25 164.224 471.136C183.812 463.022 200.554 449.283 212.334 431.654C224.113 414.025 230.4 393.298 230.4 372.096C230.375 343.673 219.072 316.421 198.974 296.322C178.875 276.224 151.623 264.921 123.2 264.896ZM123.2 447.408C108.327 447.408 93.7877 442.998 81.4212 434.735C69.0546 426.471 59.416 414.727 53.7243 400.986C48.0326 387.245 46.5434 372.125 49.445 357.537C52.3466 342.95 59.5087 329.55 70.0256 319.034C80.5425 308.517 93.9419 301.355 108.529 298.453C123.117 295.551 138.237 297.041 151.978 302.732C165.719 308.424 177.463 318.063 185.727 330.429C193.99 342.796 198.4 357.335 198.4 372.208C198.37 392.143 190.438 411.253 176.342 425.35C162.245 439.446 143.135 447.378 123.2 447.408Z" fill="#0340FB"/>
<path fill-rule="evenodd" clip-rule="evenodd" d="M147.503 332.432L113.903 374.496L99.7594 353.264C97.4043 349.733 93.7431 347.283 89.5813 346.452C85.4195 345.621 81.098 346.477 77.5674 348.832C74.0368 351.187 71.5864 354.848 70.7553 359.01C69.9241 363.172 70.7803 367.493 73.1354 371.024L99.4234 410.448C100.819 412.542 102.689 414.278 104.882 415.513C107.075 416.749 109.528 417.45 112.043 417.559C114.557 417.668 117.062 417.182 119.354 416.141C121.645 415.1 123.659 413.533 125.231 411.568L172.543 352.368C175.162 349.051 176.362 344.832 175.881 340.634C175.4 336.435 173.278 332.597 169.977 329.958C166.676 327.318 162.465 326.092 158.264 326.547C154.062 327.001 150.211 329.1 147.551 332.384L147.503 332.432Z" fill="#9EEA3E"/>
<path d="M388.736 297.488C402.486 297.488 413.632 286.342 413.632 272.592C413.632 258.842 402.486 247.696 388.736 247.696C374.986 247.696 363.84 258.842 363.84 272.592C363.84 286.342 374.986 297.488 388.736 297.488Z" fill="#9EEA3E"/>
<path fill-rule="evenodd" clip-rule="evenodd" d="M479.999 132.144H114.959C106.001 132.144 97.4106 128.585 91.0763 122.251C84.7421 115.917 81.1836 107.326 81.1836 98.3678C81.1836 89.4098 84.7421 80.8188 91.0763 74.4845C97.4106 68.1503 106.001 64.5918 114.959 64.5918H430.159C434.403 64.5918 438.472 62.9061 441.473 59.9055C444.473 56.9049 446.159 52.8352 446.159 48.5918C446.159 44.3483 444.473 40.2787 441.473 37.2781C438.472 34.2775 434.403 32.5918 430.159 32.5918H114.959C97.5173 32.6003 80.7918 39.5329 68.4583 51.8665C56.1247 64.2 49.1921 80.9255 49.1836 98.3678V254.24C49.1836 258.483 50.8693 262.553 53.8699 265.554C56.8705 268.554 60.9401 270.24 65.1836 270.24C69.427 270.24 73.4967 268.554 76.4973 265.554C79.4979 262.553 81.1836 258.483 81.1836 254.24V154.816C91.386 160.936 103.062 164.16 114.959 164.144H463.999V363.856C463.999 372.814 460.441 381.405 454.106 387.739C447.772 394.073 439.181 397.632 430.223 397.632H247.695C243.452 397.632 239.383 399.318 236.382 402.318C233.382 405.319 231.695 409.388 231.695 413.632C231.695 417.875 233.382 421.945 236.382 424.946C239.383 427.946 243.452 429.632 247.695 429.632H430.223C447.667 429.628 464.395 422.696 476.729 410.362C489.064 398.027 495.995 381.3 495.999 363.856V148.144C495.999 143.901 494.313 139.831 491.313 136.83C488.312 133.83 484.243 132.144 479.999 132.144Z" fill="#0340FB"/>
<path fill-rule="evenodd" clip-rule="evenodd" d="M430.223 82.3682H231.103C226.86 82.3682 222.79 84.0539 219.789 87.0545C216.789 90.0551 215.103 94.1247 215.103 98.3682C215.103 102.611 216.789 106.681 219.789 109.682C222.79 112.682 226.86 114.368 231.103 114.368H430.223C434.467 114.368 438.536 112.682 441.537 109.682C444.537 106.681 446.223 102.611 446.223 98.3682C446.223 94.1247 444.537 90.0551 441.537 87.0545C438.536 84.0539 434.467 82.3682 430.223 82.3682ZM131.551 82.3682C127.308 82.3682 123.238 84.0539 120.237 87.0545C117.237 90.0551 115.551 94.1247 115.551 98.3682C115.551 102.611 117.237 106.681 120.237 109.682C123.238 112.682 127.308 114.368 131.551 114.368H164.799C169.043 114.368 173.112 112.682 176.113 109.682C179.113 106.681 180.799 102.611 180.799 98.3682C180.799 94.1247 179.113 90.0551 176.113 87.0545C173.112 84.0539 169.043 82.3682 164.799 82.3682H131.551Z" fill="#9EEA3E"/>
</svg>
