<svg width="512" height="512" viewBox="0 0 512 512" fill="none" xmlns="http://www.w3.org/2000/svg">
<path fill-rule="evenodd" clip-rule="evenodd" d="M432 40H80C63.0261 40 46.7475 46.7428 34.7452 58.7452C22.7428 70.7475 16 87.0261 16 104V296C16 312.974 22.7428 329.252 34.7452 341.255C46.7475 353.257 63.0261 360 80 360H192C196.243 360 200.313 358.314 203.314 355.314C206.314 352.313 208 348.243 208 344C208 339.757 206.314 335.687 203.314 332.686C200.313 329.686 196.243 328 192 328H80C71.5131 328 63.3737 324.629 57.3726 318.627C51.3714 312.626 48 304.487 48 296V104C48 95.5131 51.3714 87.3737 57.3726 81.3726C63.3737 75.3714 71.5131 72 80 72H432C440.487 72 448.626 75.3714 454.627 81.3726C460.629 87.3737 464 95.5131 464 104V296C464 304.487 460.629 312.626 454.627 318.627C448.626 324.629 440.487 328 432 328H320C315.757 328 311.687 329.686 308.686 332.686C305.686 335.687 304 339.757 304 344C304 348.243 305.686 352.313 308.686 355.314C311.687 358.314 315.757 360 320 360H432C448.974 360 465.252 353.257 477.255 341.255C489.257 329.252 496 312.974 496 296V104C496 87.0261 489.257 70.7475 477.255 58.7452C465.252 46.7428 448.974 40 432 40Z" fill="#0340FB"/>
<path fill-rule="evenodd" clip-rule="evenodd" d="M128 88H117.328C104.598 88 92.3887 93.0571 83.387 102.059C74.3852 111.061 69.3281 123.27 69.3281 136V152C69.3281 156.243 71.0138 160.313 74.0144 163.314C77.015 166.314 81.0846 168 85.3281 168C89.5716 168 93.6412 166.314 96.6418 163.314C99.6424 160.313 101.328 156.243 101.328 152V136C101.328 131.757 103.014 127.687 106.014 124.686C109.015 121.686 113.085 120 117.328 120H128C132.243 120 136.313 118.314 139.314 115.314C142.314 112.313 144 108.243 144 104C144 99.7565 142.314 95.6869 139.314 92.6863C136.313 89.6857 132.243 88 128 88ZM432 168C436.243 168 440.313 166.314 443.314 163.314C446.314 160.313 448 156.243 448 152V136C448 123.27 442.943 111.061 433.941 102.059C424.939 93.0571 412.73 88 400 88H389.328C385.085 88 381.015 89.6857 378.014 92.6863C375.014 95.6869 373.328 99.7565 373.328 104C373.328 108.243 375.014 112.313 378.014 115.314C381.015 118.314 385.085 120 389.328 120H400C404.243 120 408.313 121.686 411.314 124.686C414.314 127.687 416 131.757 416 136V152C416 156.243 417.686 160.313 420.686 163.314C423.687 166.314 427.757 168 432 168ZM85.3281 232C81.0846 232 77.015 233.686 74.0144 236.686C71.0138 239.687 69.3281 243.757 69.3281 248V264C69.3281 276.73 74.3852 288.939 83.387 297.941C92.3887 306.943 104.598 312 117.328 312H128C132.243 312 136.313 310.314 139.314 307.314C142.314 304.313 144 300.243 144 296C144 291.757 142.314 287.687 139.314 284.686C136.313 281.686 132.243 280 128 280H117.328C113.085 280 109.015 278.314 106.014 275.314C103.014 272.313 101.328 268.243 101.328 264V248C101.328 243.757 99.6424 239.687 96.6418 236.686C93.6412 233.686 89.5716 232 85.3281 232ZM389.328 312H400C412.73 312 424.939 306.943 433.941 297.941C442.943 288.939 448 276.73 448 264V248C448 243.757 446.314 239.687 443.314 236.686C440.313 233.686 436.243 232 432 232C427.757 232 423.687 233.686 420.686 236.686C417.686 239.687 416 243.757 416 248V264C416 268.243 414.314 272.313 411.314 275.314C408.313 278.314 404.243 280 400 280H389.328C385.085 280 381.015 281.686 378.014 284.686C375.014 287.687 373.328 291.757 373.328 296C373.328 300.243 375.014 304.313 378.014 307.314C381.015 310.314 385.085 312 389.328 312Z" fill="#0340FB"/>
<path fill-rule="evenodd" clip-rule="evenodd" d="M292.688 396.688L272 417.376V344C272 339.757 270.314 335.687 267.314 332.686C264.313 329.686 260.243 328 256 328C251.757 328 247.687 329.686 244.686 332.686C241.686 335.687 240 339.757 240 344V417.376L219.312 396.688C217.836 395.16 216.071 393.941 214.118 393.102C212.166 392.264 210.067 391.822 207.942 391.804C205.818 391.785 203.711 392.19 201.745 392.995C199.778 393.799 197.992 394.987 196.49 396.49C194.987 397.992 193.799 399.778 192.995 401.745C192.19 403.711 191.786 405.818 191.804 407.942C191.822 410.067 192.264 412.166 193.102 414.118C193.941 416.071 195.16 417.836 196.688 419.312L244.688 467.312C247.688 470.312 251.757 471.997 256 471.997C260.243 471.997 264.312 470.312 267.312 467.312L315.312 419.312C318.227 416.294 319.839 412.253 319.803 408.058C319.766 403.862 318.084 399.849 315.117 396.883C312.151 393.916 308.138 392.234 303.942 392.197C299.747 392.161 295.706 393.773 292.688 396.688ZM336 200C336 184.177 331.308 168.71 322.518 155.554C313.727 142.398 301.233 132.145 286.615 126.09C271.997 120.035 255.911 118.45 240.393 121.537C224.874 124.624 210.62 132.243 199.431 143.431C188.243 154.62 180.624 168.874 177.537 184.393C174.45 199.911 176.035 215.997 182.09 230.615C188.145 245.233 198.398 257.727 211.554 266.518C224.71 275.308 240.177 280 256 280C277.217 280 297.566 271.571 312.569 256.569C327.571 241.566 336 221.217 336 200ZM208 200C208 190.506 210.815 181.226 216.089 173.333C221.364 165.439 228.86 159.287 237.631 155.654C246.402 152.021 256.053 151.07 265.364 152.922C274.675 154.774 283.228 159.346 289.941 166.059C296.654 172.772 301.226 181.325 303.078 190.636C304.93 199.947 303.979 209.598 300.346 218.369C296.713 227.14 290.561 234.636 282.667 239.911C274.774 245.185 265.493 248 256 248C243.27 248 231.061 242.943 222.059 233.941C213.057 224.939 208 212.73 208 200Z" fill="#9EEA3E"/>
</svg>
