<svg width="512" height="512" viewBox="0 0 512 512" fill="none" xmlns="http://www.w3.org/2000/svg">
<path fill-rule="evenodd" clip-rule="evenodd" d="M164.93 153.6C169.173 153.6 173.243 151.914 176.244 148.914C179.244 145.913 180.93 141.843 180.93 137.6C180.93 117.69 188.839 98.5951 202.918 84.5163C216.997 70.4376 236.092 62.5283 256.002 62.5283C275.912 62.5283 295.007 70.4376 309.086 84.5163C323.165 98.5951 331.074 117.69 331.074 137.6C331.074 141.843 332.76 145.913 335.76 148.914C338.761 151.914 342.831 153.6 347.074 153.6C351.317 153.6 355.387 151.914 358.388 148.914C361.388 145.913 363.074 141.843 363.074 137.6C363.074 109.203 351.793 81.9688 331.713 61.8889C311.633 41.809 284.399 30.5283 256.002 30.5283C227.605 30.5283 200.371 41.809 180.291 61.8889C160.211 81.9688 148.93 109.203 148.93 137.6C148.93 141.843 150.616 145.913 153.616 148.914C156.617 151.914 160.687 153.6 164.93 153.6Z" fill="#9EEA3E"/>
<path fill-rule="evenodd" clip-rule="evenodd" d="M494.881 412.528L453.281 204.368C450.688 191.288 443.637 179.513 433.332 171.051C423.026 162.589 410.104 157.965 396.769 157.968H115.201C101.866 157.965 88.9441 162.589 78.6383 171.051C68.3325 179.513 61.2818 191.288 58.689 204.368L17.089 412.528C15.4092 420.89 15.6075 429.522 17.6697 437.798C19.7319 446.075 23.6065 453.79 29.0137 460.386C34.4208 466.983 41.2255 472.297 48.9363 475.943C56.6471 479.589 65.0715 481.478 73.601 481.472H438.401C446.931 481.478 455.355 479.589 463.066 475.943C470.776 472.297 477.581 466.983 482.988 460.386C488.395 453.79 492.27 446.075 494.332 437.798C496.395 429.522 496.593 420.89 494.913 412.528H494.881ZM458.193 440.096C455.789 443.03 452.764 445.393 449.336 447.014C445.907 448.636 442.162 449.475 438.369 449.472H73.601C69.807 449.478 66.0591 448.641 62.6284 447.02C59.1977 445.4 56.1701 443.038 53.7645 440.104C51.3589 437.17 49.6355 433.738 48.719 430.056C47.8024 426.375 47.7157 422.535 48.465 418.816L90.065 210.64C91.2209 204.826 94.3587 199.593 98.9428 195.835C103.527 192.077 109.273 190.026 115.201 190.032H396.801C402.729 190.026 408.475 192.077 413.059 195.835C417.643 199.593 420.781 204.826 421.937 210.64L463.537 418.816C464.279 422.537 464.185 426.377 463.26 430.057C462.336 433.738 460.605 437.167 458.193 440.096Z" fill="#0340FB"/>
</svg>
