<svg width="512" height="512" viewBox="0 0 512 512" fill="none" xmlns="http://www.w3.org/2000/svg">
<path fill-rule="evenodd" clip-rule="evenodd" d="M369.038 142.96C349.74 123.658 324.613 111.264 297.553 107.699C270.494 104.134 243.013 109.598 219.375 123.243C195.737 136.888 177.262 157.951 166.816 183.167C156.369 208.382 154.535 236.34 161.598 262.704C162.14 264.735 163.077 266.639 164.355 268.308C165.633 269.976 167.227 271.377 169.046 272.43C170.866 273.482 172.874 274.166 174.958 274.443C177.042 274.719 179.159 274.582 181.19 274.04C183.221 273.498 185.125 272.561 186.794 271.283C188.462 270.005 189.863 268.411 190.916 266.592C191.968 264.772 192.652 262.764 192.929 260.68C193.205 258.596 193.068 256.479 192.526 254.448C187.282 234.895 188.636 214.158 196.379 195.453C204.121 176.747 217.819 161.12 235.348 150.992C252.877 140.865 273.257 136.804 293.329 139.44C313.401 142.076 332.042 151.261 346.362 165.57C360.682 179.88 369.881 198.514 372.531 218.584C375.182 238.654 371.136 259.038 361.022 276.574C350.908 294.11 335.29 307.82 316.591 315.576C297.891 323.332 277.155 324.701 257.598 319.472C255.551 318.875 253.405 318.693 251.287 318.938C249.168 319.182 247.12 319.847 245.263 320.894C243.405 321.941 241.776 323.349 240.47 325.035C239.164 326.721 238.209 328.651 237.659 330.711C237.11 332.772 236.978 334.921 237.272 337.033C237.565 339.145 238.277 341.178 239.367 343.01C240.457 344.843 241.903 346.44 243.618 347.706C245.334 348.972 247.285 349.883 249.358 350.384C275.714 357.419 303.654 355.565 328.85 345.111C354.045 334.656 375.09 316.184 388.722 292.556C402.355 268.928 407.815 241.464 404.256 214.419C400.698 187.374 388.319 162.257 369.038 142.96Z" fill="#9EEA3E"/>
<path fill-rule="evenodd" clip-rule="evenodd" d="M290.351 266.8C286.27 267.606 282.663 269.97 280.295 273.39C277.927 276.81 276.985 281.019 277.667 285.122C278.35 289.226 280.604 292.902 283.951 295.372C287.299 297.842 291.477 298.911 295.599 298.352C308.506 296.201 320.572 290.536 330.471 281.978C340.369 273.42 347.719 262.301 351.713 249.84C355.706 237.379 356.19 224.058 353.109 211.341C350.029 198.623 343.505 187 334.252 177.747C324.999 168.494 313.376 161.97 300.658 158.89C287.941 155.809 274.62 156.293 262.159 160.286C249.698 164.28 238.579 171.63 230.021 181.528C221.463 191.427 215.798 203.493 213.647 216.4C213.302 218.473 213.369 220.593 213.844 222.64C214.319 224.687 215.193 226.62 216.415 228.33C217.637 230.039 219.183 231.491 220.966 232.602C222.75 233.714 224.734 234.463 226.807 234.808C228.88 235.153 231 235.086 233.047 234.611C235.094 234.136 237.027 233.262 238.737 232.04C240.446 230.818 241.898 229.272 243.009 227.489C244.121 225.705 244.87 223.721 245.215 221.648C246.407 214.548 249.531 207.914 254.245 202.473C258.958 197.031 265.079 192.993 271.937 190.801C278.794 188.608 286.122 188.347 293.118 190.044C300.114 191.742 306.508 195.334 311.597 200.425C316.687 205.517 320.276 211.911 321.972 218.908C323.667 225.905 323.403 233.233 321.208 240.089C319.013 246.946 314.973 253.065 309.53 257.777C304.087 262.489 297.451 265.611 290.351 266.8Z" fill="#9EEA3E"/>
<path fill-rule="evenodd" clip-rule="evenodd" d="M414.079 120.56L434.991 99.632C437.906 96.6144 439.518 92.5727 439.482 88.3776C439.445 84.1824 437.763 80.1694 434.796 77.2029C431.83 74.2364 427.817 72.5537 423.621 72.5172C419.426 72.4808 415.385 74.0935 412.367 77.008L391.455 97.936C389.927 99.4119 388.708 101.177 387.869 103.13C387.031 105.082 386.589 107.181 386.571 109.306C386.553 111.43 386.957 113.537 387.762 115.503C388.566 117.47 389.754 119.256 391.257 120.758C392.759 122.261 394.545 123.449 396.512 124.253C398.478 125.058 400.585 125.462 402.709 125.444C404.834 125.426 406.933 124.984 408.885 124.146C410.838 123.307 412.603 122.088 414.079 120.56ZM95.4233 240.288H125.007C129.25 240.288 133.32 238.602 136.321 235.602C139.321 232.601 141.007 228.531 141.007 224.288C141.007 220.045 139.321 215.975 136.321 212.974C133.32 209.974 129.25 208.288 125.007 208.288H95.4233C91.1798 208.288 87.1102 209.974 84.1096 212.974C81.109 215.975 79.4233 220.045 79.4233 224.288C79.4233 228.531 81.109 232.601 84.1096 235.602C87.1102 238.602 91.1798 240.288 95.4233 240.288ZM414.079 328C412.603 326.472 410.838 325.253 408.885 324.414C406.933 323.576 404.834 323.134 402.709 323.116C400.585 323.098 398.478 323.502 396.512 324.307C394.545 325.111 392.759 326.299 391.257 327.802C389.754 329.304 388.566 331.09 387.762 333.057C386.957 335.023 386.553 337.13 386.571 339.254C386.589 341.379 387.031 343.478 387.869 345.43C388.708 347.383 389.927 349.148 391.455 350.624L412.367 371.536C415.385 374.451 419.426 376.063 423.621 376.027C427.817 375.99 431.83 374.308 434.796 371.341C437.763 368.375 439.445 364.362 439.482 360.166C439.518 355.971 437.906 351.93 434.991 348.912L414.079 328ZM287.711 77.584C291.954 77.584 296.024 75.8983 299.025 72.8977C302.025 69.8971 303.711 65.8275 303.711 61.584V32C303.711 27.7565 302.025 23.6869 299.025 20.6863C296.024 17.6857 291.954 16 287.711 16C283.468 16 279.398 17.6857 276.397 20.6863C273.397 23.6869 271.711 27.7565 271.711 32V61.584C271.711 65.8275 273.397 69.8971 276.397 72.8977C279.398 75.8983 283.468 77.584 287.711 77.584ZM260.911 251.088C257.911 248.088 253.842 246.403 249.599 246.403C245.356 246.403 241.287 248.088 238.287 251.088L20.6873 468.688C17.6851 471.688 15.9976 475.758 15.9961 480.002C15.9946 484.247 17.6792 488.318 20.6793 491.32C23.6794 494.322 27.7493 496.01 31.9936 496.011C36.238 496.013 40.3091 494.328 43.3113 491.328L260.911 273.728C262.399 272.242 263.579 270.477 264.384 268.535C265.189 266.593 265.604 264.511 265.604 262.408C265.604 260.305 265.189 258.223 264.384 256.281C263.579 254.339 262.399 252.574 260.911 251.088ZM479.999 208.288H450.415C446.172 208.288 442.102 209.974 439.101 212.974C436.101 215.975 434.415 220.045 434.415 224.288C434.415 228.531 436.101 232.601 439.101 235.602C442.102 238.602 446.172 240.288 450.415 240.288H479.999C484.242 240.288 488.312 238.602 491.313 235.602C494.313 232.601 495.999 228.531 495.999 224.288C495.999 220.045 494.313 215.975 491.313 212.974C488.312 209.974 484.242 208.288 479.999 208.288ZM161.359 120.56C164.359 123.562 168.429 125.25 172.673 125.251C176.918 125.253 180.989 123.568 183.991 120.568C186.993 117.568 188.681 113.498 188.682 109.254C188.684 105.009 186.999 100.938 183.999 97.936L163.071 77.008C160.071 74.0058 156.001 72.3183 151.757 72.3168C147.512 72.3153 143.441 73.9999 140.439 77C137.437 80.0001 135.749 84.07 135.748 88.3143C135.746 92.5587 137.431 96.6298 140.431 99.632L161.359 120.56ZM287.711 370.992C283.468 370.992 279.398 372.678 276.397 375.678C273.397 378.679 271.711 382.749 271.711 386.992V416.576C271.711 420.819 273.397 424.889 276.397 427.89C279.398 430.89 283.468 432.576 287.711 432.576C291.954 432.576 296.024 430.89 299.025 427.89C302.025 424.889 303.711 420.819 303.711 416.576V386.992C303.711 382.749 302.025 378.679 299.025 375.678C296.024 372.678 291.954 370.992 287.711 370.992Z" fill="#0340FB"/>
</svg>
