<svg width="115" height="115" viewBox="0 0 115 115" fill="none" xmlns="http://www.w3.org/2000/svg">
<g clip-path="url(#clip0_5_610)">
<path d="M57.5 0C25.7447 0 0 25.7447 0 57.5C0 89.2553 25.7447 115 57.5 115C89.2553 115 115 89.2553 115 57.5C115 25.7447 89.2553 0 57.5 0Z" fill="black"/>
<path d="M63.7905 52.2966L88.4056 23.6836H82.5726L61.1993 48.5279L44.1286 23.6836H24.4395L50.2538 61.2525L24.4395 91.2577H30.2728L52.8436 65.0213L70.8715 91.2577H90.5606L63.789 52.2966H63.7905ZM32.3746 28.0749H41.3342L82.5752 87.0661H73.6156L32.3746 28.0749Z" fill="white"/>
</g>
<defs>
<clipPath id="clip0_5_610">
<rect width="115" height="115" fill="white"/>
</clipPath>
</defs>
</svg>
